<?xml version="1.0" encoding="UTF-8"?>
<svg id="Layer_1" data-name="Layer 1" xmlns="http://www.w3.org/2000/svg" viewBox="0 0 523.54 523.54">
  <defs>
    <style>
      .cls-1 {
        fill: #123e87;
      }

      .cls-2 {
        fill: #ff8002;
      }
    </style>
  </defs>
  <path class="cls-2" d="M259.04,242.43L34.51,141.52c-5.45-2.45-11.62,1.54-11.62,7.52v249.82c0,3.27,1.93,6.23,4.92,7.54l91.12,40.1c5.45,2.4,11.56-1.59,11.56-7.54v-126.38c0-5.82,5.86-9.8,11.27-7.66l117.43,46.44c2,.79,4.22.77,6.2-.06l86.62-36.1c3.09-1.29,5.09-4.31,5.07-7.66l-.58-90.81c-.04-5.87-6.02-9.81-11.43-7.55l-79.47,33.34c-2.11.88-4.48.85-6.57-.08Z"/>
  <path class="cls-1" d="M391.97,198.95v128.21c0,4.49-2.65,8.56-6.77,10.37l-117.09,51.49c-2.69,1.18-5.74,1.27-8.49.25l-84.39-31.24c-4-1.48-8.24,1.49-8.21,5.75l.51,92.61c.02,4.51,2.73,8.58,6.88,10.35l83.46,35.65c2.83,1.21,6.04,1.21,8.87.01l227-96.33c4.18-1.78,6.9-5.88,6.9-10.43v-238.28c0-5.42-5.52-9.09-10.52-7l-91.21,38.12c-4.21,1.76-6.96,5.88-6.96,10.45Z"/>
  <path class="cls-2" d="M117.44,84.08l44.07,16.89c1.51.58,3.17.57,4.67-.01l144.4-56.17c1.52-.59,1.62-2.71.13-3.39-9.54-4.36-33.94-15.49-45.55-20.56-1.88-.82-3.98-.82-5.88-.04l-141.91,58.9c-1.97.82-1.93,3.62.06,4.38Z"/>
  <path class="cls-1" d="M196.84,109.81l63.72-26.59c1.11-.46,2.37-.43,3.45.08l62.2,29.54c2.94,1.4,2.85,5.61-.15,6.88l-60.5,25.56c-1.06.45-2.25.45-3.3,0l-65.44-27.65c-3.46-1.46-3.45-6.37.02-7.82Z"/>
  <g>
    <path class="cls-2" d="M233.04,159.01l-38.67,16.36c-3.16,1.34-6.7,1.33-9.85-.06-49.76-21.98-108.58-48.01-132.94-58.98-4.22-1.91-4.28-7.97-.07-9.95l36.83-14.69c.66-.26,1.38-.26,2.04.07l142.66,60.67c2.91,1.24,2.9,5.36,0,6.59Z"/>
    <path class="cls-2" d="M405.19,155l-136.18,54.29c-2.44.99-5.07.92-7.51-.13-7.04-3.03-23.23-10.16-43.85-19.28-3.13-1.39-3.1-5.87.08-7.16l47.79-19.42,30.77-12.52v-.07l50.07-20.42,5.05-2.1c2.57-1.07,5.48-1,7.99.19l45.92,21.68c2.11.99,2.04,4.08-.13,4.94Z"/>
    <path class="cls-2" d="M481.08,117.87c-35.34-16.62-121.26-55.17-143.33-64.39-2.04-.85-4.32-.81-6.34.09l-41.27,18.34c-2.66,1.18-2.69,4.96-.04,6.17l59.94,27.49h0l81.41,36.56c1.78.8,3.82.84,5.63.12l43.74-17.44c3.09-1.23,3.26-5.53.25-6.95Z"/>
  </g>
</svg>